<svg width="1092" height="214" viewBox="0 0 1092 214" fill="none" xmlns="http://www.w3.org/2000/svg">
<g clip-path="url(#clip0_258_399)">
<path d="M104.399 74.1298C104.399 74.1298 102.692 41.1732 68.6208 31.9842C26.6956 20.6866 10.6455 2.55408 10.6455 2.55408C10.6455 2.55408 7.71844 31.0844 25.593 61.5688C32.7643 73.8117 46.5118 89.981 75.197 102.206C105.287 115.058 104.399 74.1298 104.399 74.1298Z" fill="#1FC8BF"/>
<path d="M2.1868 59.7235C2.1868 59.7235 27.3205 77.5379 47.6148 80.8918C72.5924 85 94.8283 97.5973 97.2187 104.278C98.1944 107.004 96.6138 143.251 96.6138 143.251C109.298 154.476 48.8051 141.588 27.8864 120.42C7.57259 99.8059 4.57723 70.294 2.1868 59.7235Z" fill="#25ABA3"/>
<path d="M87.813 154.322C87.813 154.322 92.5646 154.649 75.9779 143.588C59.8303 132.836 48.8538 141.07 10.6752 121.374C13.2607 131.245 20.071 150.514 34.4819 163.52C48.8928 176.526 61.6841 181.343 78.4757 185.334C95.2672 189.324 87.813 154.322 87.813 154.322Z" fill="#299891"/>
<path d="M77.4906 74.1294H104.4V169.891C104.985 179.116 104.4 194.94 131.29 187.16V209.428C131.29 209.428 107.386 215.545 93.6382 208.864C79.8908 202.184 77.5004 188.269 77.5004 162.456L77.4906 74.1294Z" fill="#333333"/>
<path d="M171.095 118.521H144.527V211.983H171.095V118.521Z" fill="#333333"/>
<path d="M157.807 104.751C167.237 104.751 174.881 97.9554 174.881 89.5724C174.881 81.1895 167.237 74.3938 157.807 74.3938C148.377 74.3938 140.732 81.1895 140.732 89.5724C140.732 97.9554 148.377 104.751 157.807 104.751Z" fill="#333333"/>
<path d="M182.608 119.066H209.254L234.339 181.253L260.282 119.066H285.962L247.208 211.892H220.396L182.608 119.066Z" fill="#333333"/>
<path d="M400.949 118.62H426.132V130.572C426.132 130.572 434.854 118.62 459.832 118.62C459.51 143.361 459.51 142.452 459.51 142.452C459.51 142.452 430.415 136.562 426.62 163.665V211.982H400.949V118.62Z" fill="#333333"/>
<path d="M363.373 182.525C363.373 182.525 324.151 206.092 314.033 171.918H382.858C382.858 171.918 384.419 157.966 378.711 144.378C374.779 136.685 368.565 130.201 360.804 125.691C353.043 121.182 344.059 118.835 334.913 118.929C307.311 118.929 287.475 139.179 287.475 164.892C287.475 190.605 307.711 210.846 336.796 212.028C339.668 212.033 342.538 211.881 345.392 211.573C357.353 209.837 369.784 205.783 376.506 196.776L363.373 182.525ZM335.81 137.771C355.373 137.771 357.91 157.766 357.91 157.766H313.711C313.711 157.766 316.238 137.743 335.81 137.771V137.771Z" fill="#333333"/>
<path d="M554.084 214.5C546.053 214.5 538.332 213.486 530.919 211.459C523.507 209.312 517.7 206.628 513.5 203.408L520.913 189.812C525.237 192.793 530.487 195.179 536.664 196.968C542.841 198.757 549.08 199.651 555.381 199.651C570.947 199.651 578.73 195.358 578.73 186.771C578.73 183.908 577.68 181.642 575.58 179.972C573.48 178.303 570.824 177.11 567.612 176.394C564.523 175.56 560.076 174.665 554.269 173.711C546.362 172.518 539.876 171.147 534.811 169.596C529.869 168.046 525.607 165.422 522.024 161.725C518.442 158.027 516.65 152.839 516.65 146.16C516.65 137.573 520.357 130.715 527.769 125.587C535.182 120.339 545.127 117.715 557.605 117.715C564.152 117.715 570.7 118.491 577.248 120.041C583.796 121.592 589.17 123.679 593.37 126.303L585.772 139.899C577.742 134.89 568.291 132.385 557.419 132.385C549.883 132.385 544.139 133.578 540.185 135.963C536.232 138.349 534.255 141.509 534.255 145.445C534.255 148.546 535.367 150.991 537.591 152.78C539.815 154.569 542.532 155.881 545.745 156.715C549.08 157.55 553.713 158.504 559.643 159.578C567.55 160.89 573.912 162.321 578.73 163.871C583.672 165.303 587.873 167.807 591.332 171.385C594.791 174.963 596.521 179.972 596.521 186.413C596.521 195 592.691 201.858 585.031 206.986C577.495 211.995 567.179 214.5 554.084 214.5Z" fill="#333333"/>
<path d="M673.977 207.881C671.383 210.027 668.171 211.697 664.341 212.89C660.511 213.963 656.558 214.5 652.481 214.5C642.597 214.5 634.938 211.936 629.502 206.807C624.066 201.679 621.348 194.344 621.348 184.803V132.743H604.67V118.61H621.348V97.8577H639.138V118.61H667.306V132.743H639.138V184.087C639.138 189.215 640.436 193.151 643.03 195.894C645.748 198.637 649.578 200.009 654.519 200.009C659.955 200.009 664.588 198.518 668.418 195.537L673.977 207.881Z" fill="#333333"/>
<path d="M787.03 118.61V213.426H770.167V199.115C766.584 204.004 761.828 207.821 755.898 210.564C750.091 213.188 743.729 214.5 736.81 214.5C723.715 214.5 713.399 211.041 705.863 204.124C698.327 197.087 694.559 186.771 694.559 173.174V118.61H712.349V171.206C712.349 180.39 714.634 187.367 719.205 192.137C723.776 196.789 730.324 199.115 738.849 199.115C748.238 199.115 755.65 196.371 761.086 190.885C766.522 185.399 769.24 177.647 769.24 167.628V118.61H787.03Z" fill="#333333"/>
<path d="M913.555 80.6834V213.426H896.506V198.399C892.552 203.647 887.549 207.642 881.495 210.385C875.442 213.128 868.77 214.5 861.481 214.5C851.969 214.5 843.444 212.472 835.908 208.417C828.372 204.362 822.442 198.697 818.118 191.422C813.918 184.027 811.817 175.56 811.817 166.018C811.817 156.477 813.918 148.069 818.118 140.793C822.442 133.518 828.372 127.853 835.908 123.798C843.444 119.743 851.969 117.715 861.481 117.715C868.523 117.715 875.009 119.027 880.939 121.651C886.869 124.156 891.811 127.913 895.764 132.922V80.6834H913.555ZM862.964 199.472C869.141 199.472 874.762 198.101 879.827 195.358C884.893 192.495 888.846 188.56 891.688 183.55C894.529 178.422 895.95 172.578 895.95 166.018C895.95 159.459 894.529 153.674 891.688 148.665C888.846 143.537 884.893 139.601 879.827 136.858C874.762 134.115 869.141 132.743 862.964 132.743C856.663 132.743 850.98 134.115 845.915 136.858C840.973 139.601 837.02 143.537 834.055 148.665C831.214 153.674 829.793 159.459 829.793 166.018C829.793 172.578 831.214 178.422 834.055 183.55C837.02 188.56 840.973 192.495 845.915 195.358C850.98 198.101 856.663 199.472 862.964 199.472Z" fill="#333333"/>
<path d="M947.215 118.61H965.005V213.426H947.215V118.61ZM956.11 100.362C952.651 100.362 949.748 99.2889 947.4 97.1421C945.177 94.9953 944.065 92.3714 944.065 89.2705C944.065 86.1696 945.177 83.5458 947.4 81.399C949.748 79.1329 952.651 77.9999 956.11 77.9999C959.569 77.9999 962.411 79.0733 964.635 81.2201C966.982 83.2476 968.155 85.8118 968.155 88.9127C968.155 92.1329 966.982 94.876 964.635 97.1421C962.411 99.2889 959.569 100.362 956.11 100.362Z" fill="#333333"/>
<path d="M1041.04 214.5C1031.28 214.5 1022.51 212.413 1014.72 208.238C1006.94 204.064 1000.83 198.339 996.378 191.064C992.054 183.67 989.892 175.321 989.892 166.018C989.892 156.715 992.054 148.426 996.378 141.151C1000.83 133.757 1006.94 128.032 1014.72 123.977C1022.51 119.803 1031.28 117.715 1041.04 117.715C1050.8 117.715 1059.51 119.803 1067.17 123.977C1074.95 128.032 1081 133.757 1085.33 141.151C1089.78 148.426 1092 156.715 1092 166.018C1092 175.321 1089.78 183.67 1085.33 191.064C1081 198.339 1074.95 204.064 1067.17 208.238C1059.51 212.413 1050.8 214.5 1041.04 214.5ZM1041.04 199.472C1047.34 199.472 1052.96 198.101 1057.9 195.358C1062.97 192.495 1066.92 188.56 1069.76 183.55C1072.6 178.422 1074.02 172.578 1074.02 166.018C1074.02 159.459 1072.6 153.674 1069.76 148.665C1066.92 143.537 1062.97 139.601 1057.9 136.858C1052.96 134.115 1047.34 132.743 1041.04 132.743C1034.74 132.743 1029.06 134.115 1023.99 136.858C1019.05 139.601 1015.09 143.537 1012.13 148.665C1009.29 153.674 1007.87 159.459 1007.87 166.018C1007.87 172.578 1009.29 178.422 1012.13 183.55C1015.09 188.56 1019.05 192.495 1023.99 195.358C1029.06 198.101 1034.74 199.472 1041.04 199.472Z" fill="#333333"/>
</g>
<defs>
<clipPath id="clip0_258_399">
<rect width="1092" height="214" fill="white"/>
</clipPath>
</defs>
</svg>
