<svg width="98" height="123" viewBox="0 0 98 123" fill="none" xmlns="http://www.w3.org/2000/svg">
<path d="M94.5421 91.9088C91.1597 86.2776 85.3344 83.2742 80.0728 79.5201C77.442 77.643 74.6234 75.3905 73.4959 72.1995C72.1805 68.8208 72.1805 64.8789 71.6168 61.3125C71.6168 60.9371 71.2409 60.5617 70.8651 60.374C70.3014 54.1796 67.4827 47.7976 62.7849 42.5417C57.5233 36.7228 50.7585 33.1564 44.1815 32.2178C43.9936 32.0301 43.6178 31.8424 43.4299 31.6547C42.4903 31.0916 41.5507 30.7162 40.6112 30.1531C40.4233 29.9653 40.2354 29.7776 39.8595 29.5899C38.3562 28.4637 37.0408 27.1497 35.9134 25.8358C35.5375 23.9587 34.7859 22.0816 33.8463 20.3923C33.0947 13.2594 30.4639 6.50193 26.1419 0.682998C25.3903 -0.255538 23.699 -0.0678325 22.7595 0.307582C22.0078 0.49529 20.8804 1.24612 20.8804 2.18466C20.8804 2.18466 20.8804 2.18466 20.6924 2.18466C20.3166 2.37236 19.565 2.74779 19.565 3.1232C19.1891 6.12652 18.8133 9.12982 18.6254 12.3209C16.7463 12.3209 15.0551 12.6963 13.3638 13.4471C12.988 13.0717 12.6122 12.6963 12.2364 12.3209C11.2968 11.3823 10.5452 10.2561 9.79352 9.12983C9.41769 8.379 8.85394 7.62818 8.66603 6.87735C8.47812 6.31423 7.72648 6.12652 7.16274 6.12652C6.22318 5.18798 2.84074 5.7511 2.08909 7.06505C-1.29334 13.8225 0.0220533 21.1431 1.90118 28.0883C1.90118 28.276 2.0891 28.4637 2.27701 28.6514C2.27701 28.8391 2.27701 29.0268 2.27701 29.2145C2.27701 32.9687 3.59239 36.5351 5.65943 39.3507C6.41108 41.0401 7.72647 42.354 9.41768 43.4803C9.79351 43.8557 10.3573 44.0434 10.7331 44.4188C10.921 44.6065 11.2968 44.7942 11.4847 44.9819C11.1089 44.7942 10.921 44.6065 10.5452 44.2311C11.2968 44.6065 12.4243 45.7328 12.988 46.4836C13.7397 47.2344 14.3034 47.9853 15.0551 48.7361C15.4309 49.2992 15.8067 49.6746 16.1825 50.2377C16.9342 51.5517 18.0617 52.4902 19.3771 53.2411C19.1891 60.3739 22.0078 67.8822 27.6452 74.0766C38.1683 85.7144 54.5167 88.1546 64.2882 79.3324C65.2277 78.5816 65.9794 77.643 66.5431 76.8922C68.7981 80.0832 71.8047 82.7111 75.375 84.4005C77.442 85.5267 79.8849 86.2776 81.9519 87.5915C84.2069 89.0932 85.7102 91.3457 86.8377 93.7859C88.7168 97.9154 90.5959 105.236 87.5893 109.178C86.086 111.243 83.4553 112.744 81.5761 114.434C79.5091 116.311 77.442 118.188 75.375 120.253C74.4354 121.191 74.9992 122.317 75.9388 122.693C75.9388 122.693 75.9388 122.693 76.1267 122.693C76.3146 122.88 76.5025 122.881 76.6904 122.881C78.0058 123.256 79.697 122.693 80.4486 121.942C82.8915 119.502 85.7102 117.812 88.9047 116.123C91.7234 114.621 94.1663 112.744 95.6696 109.929C98.6762 104.485 97.9245 97.1646 94.5421 91.9088Z" fill="#F5A657"/>
<path d="M50.1946 66.5683C49.443 63.9404 48.8792 61.5002 48.5034 58.8723C48.1276 56.4321 47.188 54.3673 44.7451 53.4287C44.5572 53.4287 44.3693 53.4287 44.1814 53.4287C43.9935 53.0533 43.8056 52.8656 43.2418 52.6779C40.4232 51.9271 37.6045 51.7394 34.7858 52.8656C32.5308 53.8042 30.8396 55.4935 29.3363 57.3706C28.0209 59.2477 26.8935 61.1248 25.3902 62.8141C25.0143 63.1895 24.2627 63.7527 23.6989 63.9404C22.3836 64.3158 20.8803 63.7527 19.377 63.9404C18.2495 64.1281 15.9945 64.8789 16.3704 66.5683C16.9341 69.5716 19.9407 72.0118 22.0077 74.0766C24.4506 76.3291 26.8935 78.3938 29.7121 80.2709C35.5374 83.8374 42.4902 85.9021 49.2551 84.7759C50.5704 84.5882 51.8858 84.0251 52.2616 82.7111C53.7649 77.0799 51.8858 71.8241 50.1946 66.5683ZM33.8462 76.8922C31.5913 75.3905 29.3363 73.7012 27.4572 71.8241C26.1418 70.6978 24.4506 69.1962 23.3231 67.6945C24.4506 67.6945 25.3902 67.5068 26.5176 66.9437C28.5847 66.0052 30.2759 64.3158 31.5913 62.6264C32.9067 60.937 33.8462 59.06 35.1616 57.5583C36.6649 55.869 37.9803 55.6812 40.2352 56.2444C40.4232 56.2444 40.6111 56.2444 40.799 56.2444C40.9869 56.4321 41.1748 56.8075 41.7386 56.9952C43.4298 57.5583 43.2418 60.9371 43.4298 62.251C43.8056 64.6912 44.5572 66.9437 45.3089 69.1962C46.6243 73.138 47.9397 77.0799 47.5638 81.3972C42.4902 81.3972 37.9803 79.5201 33.8462 76.8922Z" fill="#E08C40"/>
<path d="M22.3837 60.1865C21.4442 57.934 20.8804 55.4938 20.6925 53.0537C20.6925 52.8659 20.6925 52.8659 20.8804 52.6782C20.8804 52.6782 20.8804 52.4905 21.0684 52.4905C21.82 50.9889 19.9409 50.4257 18.8134 50.6135C18.4376 50.6135 18.0617 50.8012 17.6859 50.8012C17.498 50.8012 17.3101 50.8012 17.1222 50.8012C16.3705 50.8012 15.6189 50.8012 15.0551 51.1766C14.4914 51.3643 13.9277 51.7397 13.5518 52.3028C12.6123 54.3676 11.8606 56.9955 12.8002 59.248C13.176 60.3742 13.7397 61.1251 14.6793 61.8759C15.2431 62.2513 15.8068 62.6267 16.5584 62.8144C17.1222 63.0021 17.6859 63.0021 18.2497 62.8144C19.0013 63.0021 20.1288 62.8144 20.8804 62.439C21.0683 62.439 21.0683 62.2513 21.2563 62.2513C21.6321 62.0636 22.0079 61.8759 22.3837 61.5005C22.1958 61.1251 22.5716 60.7496 22.3837 60.1865Z" fill="#E08C40"/>
<path d="M20.3168 29.9655C20.3168 29.7778 20.1289 29.59 19.941 29.59C19.7531 29.4023 19.3773 29.4023 19.1894 29.4023C18.8135 29.4023 18.4377 29.4023 18.2498 29.4023L17.4982 29.59C17.1223 29.7778 16.5586 29.9655 16.1828 30.1532C15.9949 30.3409 15.9949 30.3409 15.8069 30.5286C15.619 30.5286 15.2432 30.7163 15.0553 30.7163C14.8674 30.904 14.6795 30.904 14.4916 31.0917C14.1157 31.2794 13.9278 31.4671 13.7399 31.8425C13.7399 32.0303 13.552 32.0303 13.552 32.218C13.552 32.5934 13.552 32.7811 13.7399 32.9688C14.1157 33.1565 14.3036 33.5319 14.6795 33.7196C14.8674 33.9073 15.0553 34.0951 15.4311 34.2828C15.619 34.4705 15.8069 34.4705 15.9949 34.4705C16.3707 34.6582 16.9344 34.6582 17.3102 34.4705C18.0619 34.4705 18.8135 34.095 19.3773 33.7196C19.7531 33.5319 20.1289 33.1565 20.3168 32.7811C20.5048 32.5934 20.5048 32.4057 20.5048 32.218C20.5048 32.0303 20.5047 31.8425 20.6927 31.6548C20.6927 31.2794 20.8806 30.904 20.6927 30.5286C20.5047 30.3409 20.5048 30.1532 20.3168 29.9655Z" fill="#E08C40"/>
</svg>
